<svg id="visual" viewBox="0 0 1920 1080" width="1920" height="1080" xmlns="http://www.w3.org/2000/svg" xmlns:xlink="http://www.w3.org/1999/xlink" version="1.1"><rect x="0" y="0" width="1920" height="1080" fill="#001220"></rect><path d="M0 915L53.3 908.7C106.7 902.3 213.3 889.7 320 878C426.7 866.3 533.3 855.7 640 860.8C746.7 866 853.3 887 960 894C1066.7 901 1173.3 894 1280 883C1386.7 872 1493.3 857 1600 858C1706.7 859 1813.3 876 1866.7 884.5L1920 893L1920 1081L1866.7 1081C1813.3 1081 1706.7 1081 1600 1081C1493.3 1081 1386.7 1081 1280 1081C1173.3 1081 1066.7 1081 960 1081C853.3 1081 746.7 1081 640 1081C533.3 1081 426.7 1081 320 1081C213.3 1081 106.7 1081 53.3 1081L0 1081Z" fill="#fa7268"></path><path d="M0 883L53.3 890.3C106.7 897.7 213.3 912.3 320 911.2C426.7 910 533.3 893 640 888.5C746.7 884 853.3 892 960 899.8C1066.7 907.7 1173.3 915.3 1280 919.3C1386.7 923.3 1493.3 923.7 1600 924.3C1706.7 925 1813.3 926 1866.7 926.5L1920 927L1920 1081L1866.7 1081C1813.3 1081 1706.7 1081 1600 1081C1493.3 1081 1386.7 1081 1280 1081C1173.3 1081 1066.7 1081 960 1081C853.3 1081 746.7 1081 640 1081C533.3 1081 426.7 1081 320 1081C213.3 1081 106.7 1081 53.3 1081L0 1081Z" fill="#ef5f67"></path><path d="M0 984L53.3 976C106.7 968 213.3 952 320 939.3C426.7 926.7 533.3 917.3 640 924.8C746.7 932.3 853.3 956.7 960 966C1066.7 975.3 1173.3 969.7 1280 965.3C1386.7 961 1493.3 958 1600 952.8C1706.7 947.7 1813.3 940.3 1866.7 936.7L1920 933L1920 1081L1866.7 1081C1813.3 1081 1706.7 1081 1600 1081C1493.3 1081 1386.7 1081 1280 1081C1173.3 1081 1066.7 1081 960 1081C853.3 1081 746.7 1081 640 1081C533.3 1081 426.7 1081 320 1081C213.3 1081 106.7 1081 53.3 1081L0 1081Z" fill="#e34c67"></path><path d="M0 958L53.3 965.5C106.7 973 213.3 988 320 993.5C426.7 999 533.3 995 640 992.5C746.7 990 853.3 989 960 993C1066.7 997 1173.3 1006 1280 1007.8C1386.7 1009.7 1493.3 1004.3 1600 1001.8C1706.7 999.3 1813.3 999.7 1866.7 999.8L1920 1000L1920 1081L1866.7 1081C1813.3 1081 1706.7 1081 1600 1081C1493.3 1081 1386.7 1081 1280 1081C1173.3 1081 1066.7 1081 960 1081C853.3 1081 746.7 1081 640 1081C533.3 1081 426.7 1081 320 1081C213.3 1081 106.7 1081 53.3 1081L0 1081Z" fill="#d53867"></path><path d="M0 1004L53.3 1004.7C106.7 1005.3 213.3 1006.7 320 1012.8C426.7 1019 533.3 1030 640 1034C746.7 1038 853.3 1035 960 1034.2C1066.7 1033.3 1173.3 1034.7 1280 1030.7C1386.7 1026.7 1493.3 1017.3 1600 1019.8C1706.7 1022.3 1813.3 1036.7 1866.7 1043.8L1920 1051L1920 1081L1866.7 1081C1813.3 1081 1706.7 1081 1600 1081C1493.3 1081 1386.7 1081 1280 1081C1173.3 1081 1066.7 1081 960 1081C853.3 1081 746.7 1081 640 1081C533.3 1081 426.7 1081 320 1081C213.3 1081 106.7 1081 53.3 1081L0 1081Z" fill="#c62368"></path></svg>